<svg width="152" height="152" viewBox="0 0 152 152" fill="none" xmlns="http://www.w3.org/2000/svg">
<path d="M109 8C111.875 9.45982 113.313 11.088 113.314 12.8846L109 44.8899C109 56.569 112.566 80.7692 119.697 117.49L128.323 138.546C128.323 140.006 127.115 141.634 124.7 143.43H121.422C119.122 142.756 115.671 135.851 111.071 122.712C108.08 112.156 105.089 95.8725 102.099 73.8622H101.064C94.3932 93.1773 89.6775 103.172 86.9172 103.846L84.1573 104.52C81.742 104.52 78.751 99.9153 75.1856 90.7069H73.9784C72.5983 118.444 69.8955 132.313 65.8702 132.313H65.3523C61.6718 132.313 59.6587 129.506 59.3137 123.891C62.189 113.11 63.6272 101.88 63.6272 90.2013L58.969 45.5638V42.3626C58.9691 38.0955 60.5219 35.9619 63.6272 35.9619C68.1127 35.9621 72.0808 44.5534 75.5312 61.7347C80.5917 77.3438 83.6974 85.7657 84.8475 87.0009C87.4928 82.9582 90.1382 75.7709 92.7835 65.4398C94.8537 60.1618 96.8659 51.9078 98.8211 40.6783V36.4675C99.8563 17.4892 103.077 8 108.483 8H109ZM135.494 66.7894C137.334 66.7894 138.887 68.4174 140.152 71.674L138.599 83.6333V91.5509C138.6 100.759 140.21 112.831 143.43 127.767C142.28 129.9 140.325 130.967 137.565 130.967C132.849 130.967 129.743 117.491 128.248 90.5396V84.6446C128.248 72.7412 130.664 66.7896 135.494 66.7894ZM26.805 70.4927C31.4056 70.605 39.1696 78.4662 50.0959 94.0755L50.4406 96.9394C50.4401 100.084 42.5615 102.498 26.805 104.182L26.2881 104.688V105.362C28.7033 115.468 31.2332 120.521 33.8785 120.521H35.9491C39.6295 120.521 45.2077 116.647 52.6835 108.899H53.7183C56.0186 108.899 57.8016 110.528 59.0667 113.784C59.0662 116.479 54.2359 121.14 44.5752 127.765C42.0449 129.225 38.9966 130.292 35.4312 130.965C26.1152 130.965 19.6173 122.431 15.9369 105.362C10.6462 104.576 8 102.441 8 98.9602C8.00014 96.4898 9.95592 94.8616 13.8663 94.0755V94.7494L15.5913 94.0755V89.8639C15.5914 76.9501 19.3294 70.4928 26.805 70.4927ZM25.5979 88.8535V94.0755H26.2881C32.7286 93.8509 35.9491 93.1768 35.9491 92.0538C32.9588 87.6744 30.256 84.5301 27.8408 82.6211H26.2881L25.5979 88.8535ZM128.938 43.2065C133.309 44.1048 135.494 46.0138 135.494 48.9333C134.344 52.0776 132.504 53.6506 129.973 53.6506C125.718 52.8645 123.59 50.7861 123.59 47.4172C124.74 44.61 126.523 43.2065 128.938 43.2065Z" fill="#F8CB16"/>
</svg>
