<svg width="80" height="80" viewBox="0 0 80 80" fill="none" xmlns="http://www.w3.org/2000/svg">
<path d="M49.5986 20C50.4278 20.4312 50.8425 20.912 50.8426 21.4427L49.5986 30.8956C49.5987 34.3451 50.627 41.4927 52.6833 52.3384L55.1709 58.5573C55.1709 58.9885 54.8225 59.4693 54.126 60H53.1808C52.5175 59.801 51.5224 57.7613 50.1958 53.8808C49.3334 50.763 48.4709 45.9536 47.6085 39.4527H47.3101C45.3864 45.1575 44.0265 48.1095 43.2305 48.3085L42.4346 48.5075C41.7381 48.5075 40.8755 47.1476 39.8473 44.4279H39.4992C39.1012 52.6201 38.3218 56.7163 37.161 56.7165H37.0116C35.9503 56.7165 35.3697 55.8873 35.2702 54.2289C36.0994 51.0448 36.5142 47.728 36.5142 44.2785L35.1708 31.0947V30.1491C35.1709 28.8889 35.6187 28.2587 36.5142 28.2587C37.8077 28.2587 38.952 30.7962 39.947 35.8708C41.4063 40.481 42.3019 42.9685 42.6336 43.3333C43.3964 42.1393 44.1593 40.0165 44.9222 36.9651C45.5192 35.4062 46.0995 32.9684 46.6633 29.6517V28.408C46.9618 22.8027 47.8907 20 49.4496 20H49.5986ZM57.2389 37.3637C57.7696 37.3637 58.2174 37.8446 58.5822 38.8064L58.1345 42.3386V44.6772C58.1345 47.3969 58.5988 50.9625 59.5275 55.3737C59.1958 56.0038 58.632 56.319 57.836 56.319C56.4762 56.319 55.5806 52.3387 55.1494 44.3785V42.6373C55.1494 39.1216 55.8459 37.3638 57.2389 37.3637ZM25.8955 38.4575C27.2222 38.4907 29.4611 40.8125 32.612 45.4228L32.7114 46.2687C32.7113 47.1973 30.4393 47.9104 25.8955 48.4079L25.7464 48.5572V48.7563C26.4429 51.7412 27.1725 53.2336 27.9353 53.2337H28.5324C29.5938 53.2337 31.2024 52.0894 33.3582 49.8009H33.6567C34.32 49.8009 34.8342 50.282 35.199 51.2439C35.1989 52.0399 33.8059 53.4164 31.02 55.3732C30.2903 55.8044 29.4113 56.1194 28.3831 56.3184C25.6965 56.3184 23.8227 53.7976 22.7613 48.7563C21.2356 48.5241 20.4725 47.8937 20.4725 46.8655C20.4726 46.1359 21.0366 45.655 22.1642 45.4228V45.6219L22.6617 45.4228V44.1789C22.6617 40.3647 23.7397 38.4576 25.8955 38.4575ZM25.5474 43.8805V45.4228H25.7464C27.6037 45.3565 28.5324 45.1574 28.5324 44.8257C27.6701 43.5322 26.8907 42.6035 26.1942 42.0397H25.7464L25.5474 43.8805ZM55.3485 30.3984C56.6088 30.6637 57.2389 31.2276 57.2389 32.0898C56.9072 33.0185 56.3766 33.4831 55.6469 33.4831C54.4197 33.2509 53.8061 32.6371 53.8061 31.6421C54.1378 30.8129 54.652 30.3984 55.3485 30.3984Z" fill="#F8CB16"/>
</svg>
